<mxfile host="app.diagrams.net" agent="Mozilla/5.0 (X11; Ubuntu; Linux x86_64; rv:137.0) Gecko/20100101 Firefox/137.0" version="26.2.14">
  <diagram name="Página-1" id="lB6uuaJjfKBQThTT5O2M">
    <mxGraphModel dx="2309" dy="891" grid="1" gridSize="10" guides="1" tooltips="1" connect="1" arrows="1" fold="1" page="1" pageScale="1" pageWidth="827" pageHeight="1169" math="0" shadow="0">
      <root>
        <mxCell id="0" />
        <mxCell id="1" parent="0" />
        <mxCell id="GVdBxq70To4M7T33F03A-6" style="edgeStyle=orthogonalEdgeStyle;rounded=0;orthogonalLoop=1;jettySize=auto;html=1;" parent="1" edge="1" source="GVdBxq70To4M7T33F03A-2">
          <mxGeometry relative="1" as="geometry">
            <mxPoint x="280" y="300" as="targetPoint" />
            <mxPoint x="160" y="300" as="sourcePoint" />
          </mxGeometry>
        </mxCell>
        <mxCell id="GVdBxq70To4M7T33F03A-12" style="edgeStyle=orthogonalEdgeStyle;rounded=0;orthogonalLoop=1;jettySize=auto;html=1;exitX=1;exitY=0.25;exitDx=0;exitDy=0;entryX=0;entryY=0.125;entryDx=0;entryDy=0;entryPerimeter=0;" parent="1" source="GVdBxq70To4M7T33F03A-7" target="GVdBxq70To4M7T33F03A-13" edge="1">
          <mxGeometry relative="1" as="geometry">
            <mxPoint x="400" y="300.04761904761904" as="targetPoint" />
          </mxGeometry>
        </mxCell>
        <mxCell id="GVdBxq70To4M7T33F03A-15" style="edgeStyle=orthogonalEdgeStyle;rounded=0;orthogonalLoop=1;jettySize=auto;html=1;exitX=1;exitY=0.25;exitDx=0;exitDy=0;entryX=0;entryY=0.25;entryDx=0;entryDy=0;" parent="1" source="GVdBxq70To4M7T33F03A-7" target="GVdBxq70To4M7T33F03A-13" edge="1">
          <mxGeometry relative="1" as="geometry">
            <mxPoint x="440" y="350" as="targetPoint" />
            <Array as="points">
              <mxPoint x="400" y="300" />
              <mxPoint x="400" y="320" />
            </Array>
          </mxGeometry>
        </mxCell>
        <mxCell id="GVdBxq70To4M7T33F03A-20" style="edgeStyle=orthogonalEdgeStyle;rounded=0;orthogonalLoop=1;jettySize=auto;html=1;exitX=1;exitY=0.25;exitDx=0;exitDy=0;entryX=0.563;entryY=0;entryDx=0;entryDy=0;entryPerimeter=0;" parent="1" source="GVdBxq70To4M7T33F03A-7" edge="1" target="FG7sZSd8x5ParOeCWbwj-13">
          <mxGeometry relative="1" as="geometry">
            <mxPoint x="520" y="520" as="targetPoint" />
            <Array as="points">
              <mxPoint x="400" y="300" />
            </Array>
          </mxGeometry>
        </mxCell>
        <mxCell id="GVdBxq70To4M7T33F03A-7" value="DUAL&lt;br&gt;PORT&lt;br&gt;RAM" style="whiteSpace=wrap;html=1;" parent="1" vertex="1">
          <mxGeometry x="280" y="280" width="80" height="80" as="geometry" />
        </mxCell>
        <mxCell id="GVdBxq70To4M7T33F03A-25" style="edgeStyle=orthogonalEdgeStyle;rounded=0;orthogonalLoop=1;jettySize=auto;html=1;exitX=1;exitY=0.5;exitDx=0;exitDy=0;" parent="1" source="GVdBxq70To4M7T33F03A-13" edge="1">
          <mxGeometry relative="1" as="geometry">
            <mxPoint x="780" y="360" as="targetPoint" />
            <mxPoint x="680" y="360" as="sourcePoint" />
          </mxGeometry>
        </mxCell>
        <mxCell id="FG7sZSd8x5ParOeCWbwj-15" style="edgeStyle=orthogonalEdgeStyle;rounded=0;orthogonalLoop=1;jettySize=auto;html=1;exitX=1;exitY=0.25;exitDx=0;exitDy=0;" edge="1" parent="1" source="GVdBxq70To4M7T33F03A-13">
          <mxGeometry relative="1" as="geometry">
            <mxPoint x="780" y="319.8571428571429" as="targetPoint" />
          </mxGeometry>
        </mxCell>
        <mxCell id="GVdBxq70To4M7T33F03A-13" value="&lt;font style=&quot;font-size: 9px;&quot;&gt;BANCO DE REGISTRADORES&lt;/font&gt;" style="whiteSpace=wrap;html=1;" parent="1" vertex="1">
          <mxGeometry x="510" y="280" width="160" height="160" as="geometry" />
        </mxCell>
        <mxCell id="FG7sZSd8x5ParOeCWbwj-25" style="edgeStyle=orthogonalEdgeStyle;rounded=0;orthogonalLoop=1;jettySize=auto;html=1;exitX=0.75;exitY=1;exitDx=0;exitDy=0;" edge="1" parent="1" source="GVdBxq70To4M7T33F03A-17">
          <mxGeometry relative="1" as="geometry">
            <mxPoint x="1120" y="319.95121951219517" as="targetPoint" />
          </mxGeometry>
        </mxCell>
        <mxCell id="GVdBxq70To4M7T33F03A-17" value="" style="shape=trapezoid;perimeter=trapezoidPerimeter;whiteSpace=wrap;html=1;fixedSize=1;rotation=-90;" parent="1" vertex="1">
          <mxGeometry x="870" y="320" width="120" height="60" as="geometry" />
        </mxCell>
        <mxCell id="GVdBxq70To4M7T33F03A-32" value="" style="group" parent="1" vertex="1" connectable="0">
          <mxGeometry x="775" y="305" width="40" height="75" as="geometry" />
        </mxCell>
        <mxCell id="GVdBxq70To4M7T33F03A-26" value="" style="rounded=1;whiteSpace=wrap;html=1;rotation=-90;" parent="GVdBxq70To4M7T33F03A-32" vertex="1">
          <mxGeometry x="-17.5" y="22.5" width="75" height="30" as="geometry" />
        </mxCell>
        <mxCell id="GVdBxq70To4M7T33F03A-31" value="&lt;font style=&quot;font-size: 8px;&quot;&gt;MUX&lt;/font&gt;" style="text;html=1;align=center;verticalAlign=middle;resizable=0;points=[];autosize=1;strokeColor=none;fillColor=none;" parent="GVdBxq70To4M7T33F03A-32" vertex="1">
          <mxGeometry y="20" width="40" height="30" as="geometry" />
        </mxCell>
        <mxCell id="GVdBxq70To4M7T33F03A-33" value="" style="group" parent="1" vertex="1" connectable="0">
          <mxGeometry x="1120" y="312.5" width="40" height="75" as="geometry" />
        </mxCell>
        <mxCell id="GVdBxq70To4M7T33F03A-34" value="" style="rounded=1;whiteSpace=wrap;html=1;rotation=-90;" parent="GVdBxq70To4M7T33F03A-33" vertex="1">
          <mxGeometry x="-17.5" y="22.5" width="75" height="30" as="geometry" />
        </mxCell>
        <mxCell id="GVdBxq70To4M7T33F03A-35" value="&lt;font style=&quot;font-size: 8px;&quot;&gt;MUX&lt;/font&gt;" style="text;html=1;align=center;verticalAlign=middle;resizable=0;points=[];autosize=1;strokeColor=none;fillColor=none;" parent="GVdBxq70To4M7T33F03A-33" vertex="1">
          <mxGeometry y="20" width="40" height="30" as="geometry" />
        </mxCell>
        <mxCell id="GVdBxq70To4M7T33F03A-38" value="" style="shape=waypoint;sketch=0;size=6;pointerEvents=1;points=[];fillColor=none;resizable=0;rotatable=0;perimeter=centerPerimeter;snapToPoint=1;" parent="1" vertex="1">
          <mxGeometry x="690" y="350" width="20" height="20" as="geometry" />
        </mxCell>
        <mxCell id="GVdBxq70To4M7T33F03A-46" value="ULA" style="text;html=1;align=center;verticalAlign=middle;resizable=0;points=[];autosize=1;strokeColor=none;fillColor=none;" parent="1" vertex="1">
          <mxGeometry x="905" y="335" width="50" height="30" as="geometry" />
        </mxCell>
        <mxCell id="GVdBxq70To4M7T33F03A-2" value="PC" style="whiteSpace=wrap;html=1;" parent="1" vertex="1">
          <mxGeometry x="199.37" y="280" width="40" height="40" as="geometry" />
        </mxCell>
        <mxCell id="FG7sZSd8x5ParOeCWbwj-2" value="" style="group" vertex="1" connectable="0" parent="1">
          <mxGeometry x="120" y="275" width="40" height="75" as="geometry" />
        </mxCell>
        <mxCell id="FG7sZSd8x5ParOeCWbwj-3" value="" style="rounded=1;whiteSpace=wrap;html=1;rotation=-90;" vertex="1" parent="FG7sZSd8x5ParOeCWbwj-2">
          <mxGeometry x="-17.5" y="22.5" width="75" height="30" as="geometry" />
        </mxCell>
        <mxCell id="FG7sZSd8x5ParOeCWbwj-4" value="&lt;font style=&quot;font-size: 8px;&quot;&gt;MUX&lt;/font&gt;" style="text;html=1;align=center;verticalAlign=middle;resizable=0;points=[];autosize=1;strokeColor=none;fillColor=none;" vertex="1" parent="FG7sZSd8x5ParOeCWbwj-2">
          <mxGeometry y="20" width="40" height="30" as="geometry" />
        </mxCell>
        <mxCell id="FG7sZSd8x5ParOeCWbwj-7" style="edgeStyle=orthogonalEdgeStyle;rounded=0;orthogonalLoop=1;jettySize=auto;html=1;entryX=0;entryY=0.5;entryDx=0;entryDy=0;" edge="1" parent="1" source="FG7sZSd8x5ParOeCWbwj-4" target="GVdBxq70To4M7T33F03A-2">
          <mxGeometry relative="1" as="geometry">
            <Array as="points">
              <mxPoint x="190" y="300" />
              <mxPoint x="190" y="300" />
            </Array>
          </mxGeometry>
        </mxCell>
        <mxCell id="FG7sZSd8x5ParOeCWbwj-11" style="edgeStyle=orthogonalEdgeStyle;rounded=0;orthogonalLoop=1;jettySize=auto;html=1;exitX=1;exitY=0.5;exitDx=0;exitDy=0;" edge="1" parent="1" source="FG7sZSd8x5ParOeCWbwj-8">
          <mxGeometry relative="1" as="geometry">
            <mxPoint x="110" y="300.28571428571433" as="targetPoint" />
          </mxGeometry>
        </mxCell>
        <mxCell id="FG7sZSd8x5ParOeCWbwj-8" value="Valores possíveis do PC" style="text;html=1;align=center;verticalAlign=middle;whiteSpace=wrap;rounded=0;" vertex="1" parent="1">
          <mxGeometry x="30" y="285" width="60" height="30" as="geometry" />
        </mxCell>
        <mxCell id="FG7sZSd8x5ParOeCWbwj-13" value="MEMÓRIA DE CONTROLE" style="whiteSpace=wrap;html=1;" vertex="1" parent="1">
          <mxGeometry x="355" y="440" width="80" height="80" as="geometry" />
        </mxCell>
        <mxCell id="FG7sZSd8x5ParOeCWbwj-20" style="edgeStyle=orthogonalEdgeStyle;rounded=0;orthogonalLoop=1;jettySize=auto;html=1;" edge="1" parent="1" source="FG7sZSd8x5ParOeCWbwj-16">
          <mxGeometry relative="1" as="geometry">
            <mxPoint x="770" y="340" as="targetPoint" />
          </mxGeometry>
        </mxCell>
        <mxCell id="FG7sZSd8x5ParOeCWbwj-16" value="&lt;div&gt;&lt;font style=&quot;font-size: 7px;&quot;&gt;Valores que a ULA&amp;nbsp;&lt;/font&gt;&lt;/div&gt;&lt;div&gt;&lt;font style=&quot;font-size: 7px;&quot;&gt;pode utilizar&lt;/font&gt;&lt;/div&gt;" style="text;html=1;align=center;verticalAlign=middle;resizable=0;points=[];autosize=1;strokeColor=none;fillColor=none;" vertex="1" parent="1">
          <mxGeometry x="670" y="320" width="80" height="40" as="geometry" />
        </mxCell>
        <mxCell id="FG7sZSd8x5ParOeCWbwj-21" style="edgeStyle=orthogonalEdgeStyle;rounded=0;orthogonalLoop=1;jettySize=auto;html=1;entryX=0.583;entryY=0;entryDx=0;entryDy=0;entryPerimeter=0;" edge="1" parent="1" source="GVdBxq70To4M7T33F03A-31" target="GVdBxq70To4M7T33F03A-17">
          <mxGeometry relative="1" as="geometry" />
        </mxCell>
        <mxCell id="FG7sZSd8x5ParOeCWbwj-26" value="Valores que possam vir a ser escritos no bacno" style="text;strokeColor=none;align=center;fillColor=none;html=1;verticalAlign=middle;whiteSpace=wrap;rounded=0;" vertex="1" parent="1">
          <mxGeometry x="960" y="345" width="110" height="30" as="geometry" />
        </mxCell>
        <mxCell id="FG7sZSd8x5ParOeCWbwj-27" style="edgeStyle=orthogonalEdgeStyle;rounded=0;orthogonalLoop=1;jettySize=auto;html=1;entryX=0;entryY=0.917;entryDx=0;entryDy=0;entryPerimeter=0;" edge="1" parent="1" source="FG7sZSd8x5ParOeCWbwj-26" target="GVdBxq70To4M7T33F03A-35">
          <mxGeometry relative="1" as="geometry" />
        </mxCell>
        <mxCell id="FG7sZSd8x5ParOeCWbwj-28" style="edgeStyle=orthogonalEdgeStyle;rounded=0;orthogonalLoop=1;jettySize=auto;html=1;entryX=0.75;entryY=1;entryDx=0;entryDy=0;" edge="1" parent="1" source="GVdBxq70To4M7T33F03A-35" target="GVdBxq70To4M7T33F03A-13">
          <mxGeometry relative="1" as="geometry">
            <mxPoint x="590" y="520" as="targetPoint" />
            <Array as="points">
              <mxPoint x="1220" y="347.5" />
              <mxPoint x="1220" y="519.5" />
              <mxPoint x="630" y="519.5" />
            </Array>
          </mxGeometry>
        </mxCell>
      </root>
    </mxGraphModel>
  </diagram>
</mxfile>
